<?xml version="1.0" standalone="no"?>
<!DOCTYPE svg PUBLIC "-//W3C//DTD SVG 20010904//EN"
 "http://www.w3.org/TR/2001/REC-SVG-20010904/DTD/svg10.dtd">
<svg version="1.0" xmlns="http://www.w3.org/2000/svg"
 width="1024.000000pt" height="1024.000000pt" viewBox="0 0 1024.000000 1024.000000"
 preserveAspectRatio="xMidYMid meet">

<g transform="translate(0.000000,1024.000000) scale(0.100000,-0.100000)"
fill="#000000" stroke="none">
<path d="M0 5120 l0 -5120 5120 0 5120 0 0 5120 0 5120 -5120 0 -5120 0 0
-5120z m5224 3888 c23 -21 30 -48 70 -258 99 -518 137 -745 129 -754 -6 -6
-73 16 -69 23 5 7 -15 25 -32 28 -7 2 -12 -2 -12 -7 0 -6 -5 -10 -11 -10 -5 0
-7 5 -4 10 3 6 1 10 -5 10 -6 0 -8 5 -4 12 4 7 3 8 -5 4 -6 -4 -9 -11 -6 -16
3 -5 1 -11 -5 -15 -5 -3 -10 0 -10 7 0 15 -35 49 -43 42 -2 -2 -10 29 -17 71
-7 41 -16 75 -19 75 -4 0 -6 -485 -6 -1077 l0 -1077 -30 -8 c-16 -4 -64 -26
-105 -48 -41 -22 -118 -61 -170 -87 -52 -26 -98 -52 -102 -58 -8 -12 -246
-130 -252 -124 -9 10 294 1779 415 2417 121 643 150 789 160 813 20 50 91 64
133 27z m-1941 -640 c33 -17 46 -39 47 -76 0 -27 -8 -41 -42 -70 -23 -20 -83
-73 -132 -117 -166 -147 -164 -145 -205 -145 -61 0 -100 56 -81 116 11 32 194
210 284 276 42 30 91 37 129 16z m3880 -10 c18 -12 41 -31 52 -41 11 -11 66
-60 123 -110 112 -98 137 -134 127 -176 -20 -79 -92 -93 -167 -33 -140 112
-290 247 -299 269 -11 29 10 86 38 102 31 18 92 13 126 -11z m-2463 -275 c0
-170 0 -170 -63 -178 -147 -20 -468 -121 -524 -165 -14 -11 -30 -20 -34 -20
-5 0 -32 -11 -61 -25 -28 -14 -54 -25 -57 -25 -3 0 -14 20 -24 44 -35 85 -101
114 -152 66 -30 -29 -32 -62 -5 -124 l19 -46 -22 -13 c-12 -8 -65 -39 -117
-70 -94 -55 -259 -173 -333 -239 l-38 -33 146 -150 147 -150 -58 -52 c-67 -62
-83 -66 -75 -20 1 5 -2 6 -7 3 -12 -7 -104 83 -96 95 3 5 2 9 -3 8 -22 -4 -37
6 -105 71 -40 38 -77 69 -83 70 -13 0 -151 -149 -238 -257 -71 -89 -165 -224
-212 -308 -16 -27 -29 -51 -31 -53 -1 -2 -38 16 -83 39 -87 44 -114 46 -151 9
-22 -22 -26 -70 -9 -101 6 -11 49 -39 95 -61 77 -37 85 -44 81 -65 -3 -17 -1
-23 9 -19 10 4 11 -1 4 -20 -15 -38 -11 -43 7 -9 10 17 16 33 16 36 -1 3 70
-30 157 -74 l159 -80 -30 -58 -29 -59 -113 41 c-61 23 -139 49 -172 59 -43 12
-60 22 -59 34 2 23 -13 10 -32 -27 -24 -46 -65 -169 -58 -176 3 -3 29 -11 57
-17 91 -19 292 -65 303 -69 8 -2 7 -22 -5 -67 l-17 -63 -357 -3 c-196 -1 -357
1 -357 6 0 26 68 279 107 397 96 293 279 627 485 885 108 135 327 361 445 459
243 203 547 389 803 492 260 103 618 205 738 208 l32 1 0 -127z m1090 102
c462 -90 897 -287 1293 -583 562 -422 979 -1039 1138 -1687 16 -66 29 -127 29
-137 0 -17 -22 -18 -358 -17 l-358 0 -16 62 c-9 34 -13 65 -10 68 4 4 52 16
107 28 55 12 125 28 155 35 30 8 68 17 83 20 26 6 28 10 22 39 -11 48 -72 211
-117 311 -113 248 -290 505 -506 736 l-79 85 -107 -103 c-65 -62 -112 -100
-119 -96 -7 4 -9 3 -4 -1 10 -11 -33 -56 -46 -48 -6 3 -7 1 -4 -4 4 -6 -1 -17
-11 -26 -16 -15 -22 -12 -80 41 l-64 57 72 68 c62 61 73 67 88 55 16 -12 16
-11 2 5 -13 17 -8 25 58 89 40 39 72 73 72 77 0 20 -282 227 -410 302 l-89 51
23 47 c37 72 38 120 1 156 -29 30 -82 33 -111 7 -19 -18 -88 -176 -165 -377
-58 -154 -53 -150 -142 -110 l-55 24 19 53 c11 29 23 62 28 73 4 11 21 60 36
109 15 50 34 96 41 104 8 7 11 18 8 24 -4 5 4 4 17 -3 13 -8 35 -14 49 -16 22
-2 23 -1 7 8 -10 6 -21 8 -24 5 -3 -3 -20 6 -37 19 -57 44 -314 127 -493 161
l-93 18 0 41 c0 23 -3 90 -7 148 -5 95 -4 107 10 107 9 0 75 -11 147 -25z
m-1691 -499 c10 -12 9 -14 -6 -11 -10 2 -22 4 -28 4 -5 1 -3 6 5 11 19 12 15
12 29 -4z m-78 -51 c13 -1 28 -3 33 -4 5 0 6 -14 3 -31 -4 -18 -2 -30 4 -30 6
0 8 -4 4 -9 -6 -11 -58 34 -74 66 -13 26 -15 44 -2 24 5 -7 19 -15 32 -16z
m89 10 c1 15 5 10 16 -15 14 -34 14 -34 10 -5 -5 30 -5 30 10 -5 9 -19 16 -48
17 -66 1 -18 5 -30 10 -27 4 2 7 -3 7 -12 0 -9 7 -30 15 -48 15 -30 15 -31 -1
-12 -16 20 -16 20 -11 -5 6 -24 5 -24 -8 -6 -8 11 -15 27 -15 35 0 9 -4 22 -9
30 -8 12 -12 11 -27 -4 -14 -14 -19 -15 -23 -4 -2 8 -9 17 -15 21 -11 7 -10
57 1 113 5 27 7 28 14 10 l8 -20 1 20z m453 -13 c-2 -13 1 -21 5 -18 10 6 38
-131 30 -140 -5 -5 -112 -33 -129 -34 -8 0 -53 179 -47 185 8 8 113 34 128 32
9 -2 14 -12 13 -25z m-413 -151 c0 -5 3 -18 7 -28 6 -16 5 -16 -10 -4 -19 15
-23 41 -7 41 6 0 10 -4 10 -9z m2428 -174 c28 -17 52 -38 52 -46 0 -8 -19 -39
-42 -70 -24 -30 -46 -59 -50 -65 -9 -13 -60 22 -52 36 4 6 3 8 -4 5 -15 -10
-43 3 -35 16 3 6 1 7 -6 3 -6 -4 -18 -2 -26 4 -16 13 -17 11 53 123 26 44 28
43 110 -6z m-2758 21 c0 -6 3 -8 7 -5 10 10 35 -31 27 -45 -4 -7 -3 -8 4 -4 7
4 22 -10 38 -35 21 -33 23 -44 13 -50 -8 -4 -39 -23 -69 -43 l-54 -34 -16 22
c-8 13 -27 42 -42 64 -15 22 -32 43 -38 47 -15 10 -12 32 6 39 23 9 46 -13 39
-38 -5 -19 -5 -19 5 -3 9 15 8 22 -5 37 -16 17 -15 19 3 29 12 6 27 8 35 5 8
-3 18 -1 22 5 4 7 0 8 -11 4 -12 -4 -15 -3 -10 5 9 15 46 16 46 0z m774 -115
c-8 -49 -14 -93 -14 -100 0 -6 -26 -19 -57 -27 -220 -61 -481 -194 -650 -334
-42 -33 -42 -35 -25 -56 9 -12 71 -73 137 -136 66 -62 198 -190 292 -283 l173
-169 -16 -96 c-8 -53 -17 -98 -19 -100 -6 -6 -203 179 -639 598 l-88 85 -70
-75 c-96 -103 -165 -190 -238 -301 -73 -110 -153 -266 -145 -279 4 -6 189 -10
478 -10 l472 -1 89 -84 90 -85 -702 0 -701 0 40 113 c102 291 267 551 498 790
190 195 333 307 546 425 167 94 465 210 541 211 20 1 21 0 8 -86z m1296 45
c172 -55 361 -144 520 -246 184 -117 472 -381 597 -547 148 -196 265 -410 328
-599 l34 -101 -349 -3 c-193 -1 -508 -1 -701 0 l-350 3 91 83 91 82 474 0
c292 0 476 4 480 10 7 12 -41 107 -107 214 -75 120 -175 250 -272 351 l-85 90
-123 -120 c-68 -66 -188 -183 -268 -261 -80 -78 -188 -181 -240 -229 l-95 -88
-12 69 c-6 38 -12 88 -12 111 l-1 41 305 293 c168 162 305 297 305 300 0 14
-186 145 -293 206 -111 63 -260 127 -372 158 -33 10 -64 21 -68 25 -4 4 -12
38 -18 76 -5 38 -12 82 -15 98 -6 27 -5 28 27 21 19 -4 77 -21 129 -37z
m-3881 -83 c19 -13 42 -32 51 -42 10 -10 38 -36 64 -57 54 -47 59 -74 16 -99
-26 -16 -32 -16 -58 -3 -16 8 -35 23 -43 32 -12 15 -12 16 0 9 9 -5 12 -4 7 3
-4 6 -12 9 -19 6 -7 -2 -25 9 -41 25 -24 25 -26 31 -13 42 12 12 12 15 -1 28
-12 13 -15 13 -24 -2 -5 -9 -13 -17 -19 -17 -16 0 -27 43 -16 65 21 42 49 45
96 10z m6407 8 c22 -30 16 -63 -17 -93 -55 -52 -109 -95 -141 -112 -28 -15
-35 -16 -53 -4 -11 8 -20 23 -19 34 0 12 -3 19 -8 16 -4 -3 -8 0 -8 6 0 7 9
14 19 17 11 3 17 11 15 18 -3 7 8 18 25 26 17 8 31 19 31 26 0 8 11 11 28 9
21 -2 28 1 29 16 2 16 0 17 -13 3 -9 -8 -18 -15 -22 -15 -4 1 11 16 32 35 43
38 81 45 102 18z m-6452 -88 c-6 -16 -24 -21 -24 -7 0 11 11 22 21 22 5 0 6
-7 3 -15z m1230 -297 c22 -18 46 -36 51 -40 6 -4 25 -20 42 -35 l33 -28 -49
-55 -50 -55 -28 23 c-15 12 -52 40 -80 62 -29 23 -53 47 -53 54 0 16 24 38 32
30 3 -3 9 0 14 7 4 8 3 10 -4 5 -18 -11 -14 3 7 25 14 15 26 19 43 14 22 -6
22 -6 4 9 -11 9 -16 16 -12 16 5 0 27 -15 50 -32z m3979 25 c-19 -7 -15 -19 6
-19 11 0 17 4 15 8 -3 4 -4 8 -2 8 2 0 22 -23 43 -52 l40 -51 -29 -21 c-16
-12 -52 -40 -80 -63 -38 -32 -54 -39 -64 -31 -7 6 -11 17 -8 24 3 8 0 11 -10
7 -7 -3 -14 0 -14 5 0 6 -11 23 -25 38 -34 37 -31 53 10 44 6 -1 7 2 2 6 -8 8
20 44 35 44 5 0 7 -4 4 -8 -3 -5 2 -9 10 -9 10 0 12 3 4 11 -8 8 -1 19 22 38
18 15 38 27 43 27 6 0 4 -3 -2 -6z m1489 -84 c11 -6 26 -26 34 -46 38 -89 -49
-179 -169 -174 -42 2 -87 51 -87 94 0 61 53 77 78 24 15 -31 45 -36 80 -11 26
18 28 36 7 54 -15 13 -20 51 -8 63 10 10 42 8 65 -4z m-6902 -19 c14 -14 20
-33 20 -65 0 -53 19 -60 56 -20 13 14 28 25 33 25 13 0 31 -33 31 -58 0 -26
-37 -71 -68 -83 -60 -23 -106 14 -121 94 l-8 42 -16 -37 c-27 -63 -77 -43 -77
29 1 72 102 121 150 73z m2655 -12 c15 -13 28 -38 31 -58 12 -75 -86 -122
-143 -68 -24 23 -33 75 -10 62 10 -6 10 -4 0 7 -17 17 -16 22 5 46 33 39 80
43 117 11z m1620 -8 c52 -49 16 -140 -56 -140 -45 0 -89 43 -89 86 0 70 92
104 145 54z m1400 -150 c-3 -5 -1 -10 5 -10 10 0 70 -86 70 -100 0 -12 -101
-60 -112 -54 -6 4 -8 3 -5 -3 6 -9 -23 -28 -95 -61 -5 -2 -8 1 -8 7 0 5 -14
31 -32 57 l-32 48 27 20 c22 17 174 103 185 105 2 1 0 -3 -3 -9z m-4461 -35
c32 -19 60 -35 63 -35 2 0 20 -12 39 -26 l34 -26 -21 -37 c-44 -78 -37 -76
-125 -29 -85 45 -107 62 -96 72 3 4 -1 4 -10 1 -25 -10 -30 11 -12 47 21 41
44 68 59 68 6 0 37 -16 69 -35z m4669 -306 c25 -56 32 -79 24 -79 -2 0 -54
-18 -117 -40 -63 -21 -114 -38 -115 -37 0 1 -13 28 -28 61 -15 32 -27 60 -25
61 12 12 215 101 224 98 5 -2 22 -31 37 -64z m-3855 -45 c29 -34 29 -78 -3
-109 -26 -27 -49 -31 -91 -15 -61 24 -72 84 -24 132 26 25 36 29 63 24 18 -3
42 -17 55 -32z m2839 30 c13 -4 20 -10 17 -15 -3 -5 1 -6 9 -3 19 7 47 -33 47
-66 0 -31 -31 -67 -65 -76 -33 -8 -88 14 -81 33 3 8 2 12 -3 9 -10 -7 -21 17
-21 46 0 19 50 78 67 78 4 0 18 -3 30 -6z m-1446 -431 c0 -87 2 -173 3 -191 1
-18 -1 -35 -6 -38 -4 -3 -84 39 -178 93 -162 94 -169 99 -149 113 32 23 313
180 322 180 4 0 7 -71 8 -157z m-2681 -169 c84 -26 179 -79 227 -127 l33 -32
-41 -64 c-22 -35 -52 -86 -66 -113 l-26 -49 -44 44 c-70 70 -140 100 -242 105
-101 5 -153 -13 -221 -74 -54 -49 -82 -105 -87 -179 -7 -83 9 -134 62 -193 61
-68 127 -96 225 -96 99 1 176 30 241 93 l49 48 37 -66 c20 -36 51 -89 70 -118
l33 -51 -37 -33 c-45 -39 -157 -93 -238 -114 -82 -21 -243 -21 -325 0 -295 76
-463 352 -395 644 72 304 416 477 745 375z m5261 -40 c30 -9 68 -25 84 -37 39
-26 95 -79 95 -88 0 -6 -64 -123 -75 -137 -2 -2 -33 13 -70 32 -50 27 -79 36
-116 36 -54 0 -89 -24 -89 -60 0 -26 42 -66 78 -75 69 -16 191 -86 231 -131
103 -117 90 -307 -29 -418 -77 -72 -177 -101 -287 -84 -90 14 -223 82 -223
114 0 13 53 151 62 159 3 3 30 -10 61 -29 69 -41 125 -51 171 -32 65 27 86 98
45 150 -13 16 -65 48 -123 75 -163 76 -215 138 -216 252 -1 206 190 335 401
273z m663 -23 c34 -16 76 -46 95 -65 l34 -35 -43 -68 c-24 -37 -45 -69 -46
-71 -1 -1 -25 12 -53 29 -36 23 -68 34 -106 37 -47 4 -56 1 -79 -21 -14 -15
-26 -31 -26 -36 0 -25 52 -63 126 -91 145 -55 217 -121 245 -225 15 -53 5
-164 -19 -217 -56 -125 -215 -203 -366 -178 -60 10 -162 54 -204 87 l-22 18
31 87 31 86 45 -28 c61 -39 132 -55 176 -41 51 17 82 55 82 102 0 52 -27 77
-145 134 -119 59 -154 85 -182 138 -26 49 -30 149 -9 211 16 46 81 120 125
143 100 52 210 54 310 4z m-4429 -7 c204 -42 340 -182 368 -379 21 -152 -20
-291 -114 -385 -90 -90 -213 -130 -449 -148 l-105 -7 0 455 c0 255 -4 463 -9
474 -9 18 -5 19 115 12 68 -4 156 -14 194 -22z m-673 -4 c324 -100 425 -535
181 -779 -177 -176 -465 -172 -637 9 -169 177 -173 466 -9 641 123 131 299
180 465 129z m1255 0 c165 -24 327 -51 331 -55 2 -2 -4 -42 -14 -90 l-17 -87
-76 6 c-42 4 -95 9 -118 12 l-43 6 0 -79 0 -80 115 -6 c64 -4 121 -9 126 -13
7 -4 9 -30 4 -73 -11 -109 0 -101 -131 -101 l-114 0 0 -76 0 -77 114 7 c130 8
117 17 136 -93 6 -34 9 -65 7 -67 -5 -6 -180 -28 -360 -47 -116 -12 -127 -12
-120 2 10 21 10 867 0 904 -9 33 -17 33 160 7z m1241 8 c5 -7 53 -96 106 -198
52 -102 101 -194 109 -204 13 -17 22 -4 104 156 50 97 103 194 117 217 l26 41
85 0 c83 0 86 -1 95 -26 6 -14 35 -157 66 -318 86 -456 73 -406 111 -406 18 0
33 2 33 4 0 14 194 714 201 729 8 14 25 17 115 17 101 0 105 -1 114 -24 5 -13
56 -211 115 -441 58 -229 110 -427 115 -441 l10 -24 -109 0 c-84 0 -111 3
-121 15 -10 12 -38 15 -135 15 -97 0 -125 -3 -135 -15 -10 -12 -48 -15 -226
-15 -117 0 -215 4 -218 8 -3 5 -24 101 -46 213 -23 112 -44 212 -48 222 -5 12
-36 -35 -119 -180 -62 -109 -118 -207 -126 -217 -16 -22 -3 -42 -179 272 -44
79 -82 141 -84 139 -3 -2 -23 -98 -45 -213 -22 -115 -42 -217 -45 -226 -5 -16
-19 -18 -114 -18 -63 0 -111 4 -115 10 -4 6 10 104 30 218 90 517 105 600 115
650 l12 52 88 0 c58 0 91 -4 98 -12z m-4262 -240 c-4 -13 -9 -71 -13 -130 -3
-60 -9 -108 -13 -108 -5 0 -4 -17 0 -37 5 -21 11 -66 13 -100 l5 -63 -26 6
c-58 13 -425 116 -450 125 -15 6 -35 12 -44 14 -10 2 -26 8 -35 14 -16 9 -15
10 7 9 14 -1 31 -6 38 -11 7 -6 15 -7 19 -3 3 3 0 6 -8 6 -11 0 -11 2 1 10 8
5 24 9 35 9 l20 0 -20 -10 c-17 -8 -16 -9 8 -5 18 2 31 -2 34 -10 4 -11 32
-14 119 -14 64 0 114 4 114 9 0 6 15 12 33 14 17 2 9 3 -19 1 -65 -5 -174 6
-174 17 0 5 53 10 118 12 74 2 52 3 -63 3 -99 0 -184 -2 -190 -5 -22 -12 -91
-7 -107 7 -35 30 -10 100 44 123 32 13 520 136 547 138 9 1 11 -6 7 -21z
m7504 -47 c140 -35 267 -69 282 -77 34 -18 50 -47 46 -82 l-3 -27 -292 -3
-292 -2 -6 57 c-3 32 -12 91 -19 131 -13 73 -13 74 8 69 11 -2 136 -32 276
-66z m-3827 -104 c-3 -6 -1 -7 6 -3 19 12 51 -33 51 -70 0 -44 -49 -87 -93
-80 -36 6 -73 41 -82 77 -8 31 33 86 68 91 32 5 58 -3 50 -15z m-38 -569 c29
-13 31 -21 10 -42 -11 -11 -15 -36 -13 -108 l2 -93 5 80 6 80 33 -3 c21 -1 31
2 27 8 -3 5 1 10 9 10 10 0 13 -6 10 -17 -5 -14 -4 -15 4 -4 5 7 15 10 21 7 6
-4 11 -5 11 -1 0 3 -21 15 -46 26 -26 11 -44 22 -41 25 3 4 34 -10 69 -30 35
-19 93 -53 130 -73 37 -21 68 -41 68 -45 0 -11 -202 -128 -222 -128 -10 0 -18
-4 -18 -9 0 -5 -7 -12 -16 -15 -8 -3 -12 -2 -9 3 3 5 1 12 -5 16 -5 3 -10 1
-10 -4 0 -6 -4 -11 -10 -11 -5 0 -11 19 -12 43 l-1 42 -4 -37 c-2 -20 1 -47 8
-60 6 -13 8 -20 4 -16 -4 4 -13 0 -20 -8 -10 -15 -32 -5 -183 81 -95 53 -170
101 -167 105 7 12 314 190 327 190 4 0 19 -5 33 -12z m25 -63 c-7 -9 -15 -13
-19 -10 -3 3 1 10 9 15 21 14 24 12 10 -5z m-584 -196 c65 -34 124 -66 129
-73 6 -6 33 -22 62 -35 29 -13 49 -29 46 -34 -3 -6 -1 -7 5 -3 12 7 124 -50
130 -65 2 -5 12 -9 21 -9 10 0 29 -8 42 -18 13 -10 44 -27 68 -37 l44 -19 -5
-1023 c-2 -563 -3 -1023 -2 -1023 5 0 112 488 150 690 15 80 31 148 34 153 5
5 170 -63 188 -78 4 -4 -27 -178 -83 -465 -59 -301 -126 -653 -170 -885 -44
-239 -51 -261 -78 -280 -48 -34 -120 -7 -132 50 -13 55 -124 635 -209 1085
-83 440 -136 735 -241 1325 -13 77 -36 219 -49 316 -28 190 -63 417 -72 462
-3 15 -4 27 -2 27 3 0 58 -27 124 -61z m-2404 -165 c34 -20 114 -60 177 -89
112 -53 157 -80 111 -68 -17 5 -21 3 -15 -6 4 -8 18 -11 33 -8 24 5 25 4 8 -8
-10 -8 -25 -11 -34 -8 -9 4 -13 2 -9 -4 6 -9 -62 -44 -164 -84 -46 -18 -47
-18 -52 1 -3 11 1 21 10 24 10 4 13 2 10 -8 -4 -10 -1 -13 8 -10 13 5 15 28 3
40 -4 3 -15 1 -26 -5 -15 -8 -22 -7 -30 2 -17 22 -106 267 -97 267 2 0 32 -16
67 -36z m1224 -253 c25 -28 31 -46 12 -35 -8 4 -10 3 -5 -2 5 -5 12 -9 17 -9
4 0 22 -18 39 -39 24 -30 29 -42 19 -49 -9 -6 -7 -7 6 -3 12 4 25 -2 39 -21
40 -52 110 -123 120 -123 10 0 74 58 253 231 l91 88 79 -5 c43 -2 93 -5 111
-6 l31 -1 -48 -46 c-147 -142 -170 -162 -181 -155 -7 4 -9 3 -5 -4 4 -6 -27
-43 -71 -84 -42 -40 -87 -83 -100 -95 -13 -12 -23 -27 -23 -32 0 -23 241 -186
333 -225 17 -7 62 -28 99 -45 36 -17 120 -49 185 -71 l118 -39 6 -83 c4 -46 5
-85 3 -87 -6 -7 -212 59 -299 96 -189 80 -406 200 -385 213 8 5 7 9 -5 13 -9
4 -13 3 -10 -3 10 -16 -10 -11 -31 8 -10 9 -32 26 -49 36 -55 35 -125 98 -119
107 3 5 1 8 -4 7 -16 -5 -167 131 -167 149 0 7 -5 13 -10 13 -16 1 -76 63 -71
75 2 6 -7 24 -20 40 -13 17 -24 26 -24 21 0 -6 8 -19 18 -31 9 -12 -4 1 -30
29 -26 28 -48 55 -48 60 0 6 7 1 16 -10 14 -18 15 -18 4 3 -6 13 -15 22 -21
20 -6 -1 -16 7 -22 18 -7 11 -14 22 -17 25 -17 17 -60 73 -60 79 0 3 46 5 101
3 95 -4 103 -6 125 -31z m-638 -67 c69 -31 80 -39 65 -47 -10 -6 -20 -13 -23
-17 -3 -4 -33 -22 -67 -39 -35 -17 -63 -36 -63 -42 0 -32 115 -202 250 -368
49 -61 90 -114 90 -118 0 -11 -183 -193 -194 -193 -41 0 -365 430 -475 632
l-43 78 109 51 c186 88 174 84 195 57 9 -12 18 -18 18 -11 0 6 -4 15 -10 18
-17 11 -11 23 18 33 32 12 26 14 130 -34z m4052 -19 c0 -5 4 -4 9 3 5 9 22 12
52 8 24 -2 54 -5 67 -5 13 -1 20 -5 17 -11 -4 -6 -10 -8 -15 -5 -4 3 -7 -3 -6
-13 0 -9 -5 -16 -12 -14 -8 1 -11 -2 -7 -7 12 -20 -191 -239 -341 -367 -73
-63 -174 -137 -234 -172 -167 -99 -270 -149 -412 -200 -87 -33 -229 -74 -235
-69 -1 2 0 40 4 85 l6 82 91 29 c101 31 200 73 319 132 43 22 82 37 88 34 5
-4 8 -2 7 4 -4 13 172 130 187 124 7 -2 16 0 20 6 3 7 0 8 -9 5 -27 -11 -18 2
30 39 26 20 52 34 58 30 6 -3 8 -3 5 1 -3 3 28 40 69 81 75 74 90 87 76 63 -4
-7 2 -4 14 6 12 11 22 24 22 29 0 6 -7 2 -15 -9 -8 -10 -15 -14 -15 -9 0 6 19
29 43 50 23 22 36 33 30 26 -15 -18 -17 -35 -3 -26 6 4 8 -6 6 -24 -2 -17 0
-28 5 -26 4 3 6 27 4 53 -2 31 2 52 11 63 16 18 64 21 64 4z m-3643 -161 c2
-5 -4 -19 -12 -29 -15 -19 -16 -19 -5 3 15 30 4 42 -14 16 -10 -14 -11 -23 -4
-32 9 -10 16 -8 36 10 19 17 24 19 19 6 -4 -11 -2 -15 6 -13 7 3 21 -7 31 -22
l19 -26 -35 -31 c-77 -69 -108 -94 -108 -88 0 4 -4 0 -10 -8 -7 -12 -10 -11
-16 5 -5 11 -17 28 -29 37 -17 14 -18 19 -6 30 12 11 13 10 8 -5 -4 -11 -3
-16 3 -12 19 12 11 38 -10 32 -10 -3 -25 2 -31 9 -10 12 -6 21 16 44 16 17 34
30 41 30 6 0 15 7 18 16 3 8 10 13 16 9 5 -3 17 3 27 15 18 20 34 22 40 4z
m1191 -4 c42 -40 42 -92 0 -123 -57 -43 -138 -7 -138 61 0 68 89 108 138 62z
m4120 -37 c2 -12 -4 -33 -13 -47 -21 -31 -13 -46 25 -46 16 0 32 -5 35 -11 4
-5 14 -9 23 -7 13 2 16 12 14 39 -4 45 17 66 48 49 48 -26 53 -104 9 -155 -25
-28 -38 -35 -69 -35 -21 0 -43 7 -50 15 -7 8 -26 15 -42 15 -47 0 -88 48 -88
102 0 40 18 82 44 101 22 15 61 3 64 -20z m-6660 -3 c56 -53 33 -149 -46 -189
-59 -30 -97 -34 -134 -17 -60 29 -88 114 -53 160 22 30 63 8 67 -36 3 -31 6
-33 44 -36 34 -3 42 1 54 23 12 23 12 29 -3 55 -9 15 -14 35 -11 44 9 23 56
20 82 -4z m1686 -302 c4 3 6 0 6 -7 0 -7 -60 -76 -132 -153 -73 -77 -134 -143
-136 -148 -7 -19 250 -206 425 -309 l72 -42 -20 -46 c-25 -59 -24 -89 6 -118
48 -49 118 -22 149 55 9 22 18 40 20 40 2 0 60 -27 129 -59 l124 -60 14 -98
14 -98 5 70 c4 56 2 72 -10 78 -8 4 1 5 20 2 25 -4 31 -2 20 5 -26 17 3 11 78
-15 85 -30 258 -75 288 -75 46 0 52 -17 56 -150 l3 -125 -35 -3 c-19 -2 -51 1
-70 6 -40 12 -161 40 -205 48 -16 3 -45 12 -64 20 -18 8 -37 11 -42 9 -19 -12
-349 115 -512 196 -237 119 -560 341 -714 492 -35 34 -63 64 -63 67 1 16 310
332 328 335 10 1 16 7 15 13 -2 6 22 36 52 68 30 31 55 53 55 48 0 -5 7 2 17
15 l16 24 43 -45 c24 -25 45 -43 48 -40z m3966 47 c52 -8 119 -15 148 -15 28
0 52 -3 52 -6 0 -24 -194 -248 -340 -394 -304 -304 -606 -514 -967 -673 -152
-66 -339 -134 -348 -125 -7 6 25 288 34 306 7 16 259 134 270 127 4 -2 20 -36
35 -75 32 -81 59 -105 105 -95 35 8 71 52 71 88 0 13 -11 50 -25 81 -14 31
-25 60 -25 65 0 4 44 35 98 68 104 66 254 175 340 250 l54 46 -68 68 c-37 38
-66 70 -63 71 2 2 33 13 69 25 36 12 73 25 82 28 11 4 24 -2 39 -19 13 -14 34
-33 47 -42 23 -15 26 -14 59 18 19 18 73 77 120 131 59 67 91 96 102 93 9 -3
59 -12 111 -21z m-5424 -130 c-21 -16 -10 -20 13 -6 22 14 51 -6 51 -33 0 -12
-11 -35 -24 -50 -21 -25 -26 -27 -47 -16 -21 10 -22 10 -7 -3 17 -13 14 -18
-38 -63 -73 -64 -94 -72 -122 -48 -24 20 -28 34 -11 34 5 0 8 -3 5 -8 -2 -4
13 -7 34 -7 21 0 37 2 34 4 -2 2 1 10 6 16 14 17 2 45 -16 38 -8 -3 -14 -9
-14 -14 0 -4 7 -6 15 -3 22 9 18 -14 -4 -26 -26 -13 -34 -13 -25 2 4 6 3 8 -4
5 -14 -9 -42 2 -42 17 0 6 17 26 38 43 20 17 47 41 59 52 12 11 28 19 35 18 7
-2 9 -2 5 1 -4 2 -3 10 4 18 6 8 16 11 22 7 6 -3 7 -1 3 5 -3 6 2 15 11 21 27
16 41 12 19 -4z m6171 -18 c12 -11 20 -23 18 -27 -3 -4 1 -7 9 -6 22 2 126
-101 126 -125 0 -26 -27 -59 -47 -59 -21 0 -73 42 -66 53 3 6 1 7 -4 4 -12 -8
-85 52 -78 63 3 5 0 12 -6 16 -8 5 -9 3 -4 -6 5 -8 3 -11 -6 -8 -8 2 -18 14
-24 26 -5 12 -13 22 -17 22 -4 0 -4 7 -1 17 5 12 3 14 -8 8 -10 -7 -10 -3 3
15 11 17 24 24 42 23 17 -1 24 2 20 9 -9 15 14 1 43 -25z m-1662 -237 c-22
-25 -36 -26 -29 -2 5 14 4 14 -4 2 -6 -8 -9 -17 -7 -21 5 -7 -69 -59 -82 -59
-5 0 -1 5 7 10 12 7 12 10 1 10 -7 0 -11 6 -8 14 3 8 -1 13 -10 12 -9 0 -17 5
-19 12 -1 7 0 8 3 2 8 -17 23 -11 16 8 -7 16 -6 16 11 0 9 -10 23 -18 29 -18
7 0 6 -4 -3 -10 -8 -5 -10 -10 -4 -10 5 0 18 6 27 13 13 9 14 16 6 27 -9 13
-10 12 -5 -2 6 -21 -2 -22 -27 -4 -16 13 -14 15 29 30 38 13 49 13 56 4 5 -9
8 -7 8 7 0 14 3 16 12 7 9 -9 7 -16 -7 -32z m-2370 -530 c3 -5 1 -10 -4 -10
-6 0 -11 5 -11 10 0 6 2 10 4 10 3 0 8 -4 11 -10z m3125 -159 c0 -5 -8 -12
-17 -14 -16 -4 -16 -5 -1 -6 9 0 20 4 23 9 3 6 16 10 28 9 21 0 21 -1 2 -9
-18 -8 -17 -9 7 -9 34 -1 52 -31 43 -71 -6 -29 -95 -115 -109 -105 -3 3 -4 2
-1 -2 6 -8 -24 -43 -37 -43 -5 0 -6 6 -2 13 4 6 4 9 0 5 -4 -3 -6 -9 -4 -11 6
-9 -45 -57 -54 -51 -5 3 -7 1 -6 -4 4 -14 -72 -82 -111 -99 -42 -18 -82 -9
-112 25 -13 15 -20 24 -16 20 11 -9 51 24 97 79 8 9 16 29 17 43 1 14 -1 20
-5 14 -4 -5 -23 -22 -43 -37 -27 -21 -36 -34 -33 -50 2 -12 1 -16 -2 -9 -5 10
-9 9 -20 -5 -9 -12 -13 -14 -14 -4 0 13 125 139 168 168 16 11 26 12 35 5 9
-8 16 -6 25 8 9 14 8 20 -1 24 -7 2 3 2 22 -1 29 -5 33 -4 28 10 -3 9 -1 18 6
21 7 2 4 5 -7 5 -12 1 -16 -4 -12 -14 5 -15 -5 -20 -17 -8 -9 8 22 43 37 43 6
0 17 9 24 20 10 17 35 33 60 39 1 1 2 -3 2 -8z m-4330 -41 c25 -22 44 -45 42
-51 -1 -6 2 -8 8 -4 5 3 10 1 10 -5 0 -6 4 -9 9 -6 5 4 27 -14 49 -39 22 -25
44 -45 49 -45 6 0 29 -20 51 -44 22 -24 43 -42 45 -40 2 3 10 -9 17 -26 11
-28 11 -34 -7 -58 -30 -40 -71 -48 -119 -24 -51 26 -197 169 -188 184 4 7 3 8
-5 4 -15 -9 -64 21 -56 34 3 6 0 7 -7 5 -8 -3 -24 6 -36 20 -54 62 -27 135 51
135 35 0 50 -7 87 -40z m4054 -215 c-28 -22 -40 -18 -13 4 13 11 26 17 28 15
3 -2 -4 -11 -15 -19z"/>
<path d="M5100 7780 c0 -16 -5 -52 -11 -81 -9 -39 -8 -57 1 -74 7 -13 10 -34
7 -47 -3 -13 -2 -39 3 -58 9 -33 9 -32 5 10 -4 33 -3 41 5 30 8 -11 9 -7 3 15
-4 17 -7 76 -6 133 2 56 0 102 -2 102 -3 0 -5 -13 -5 -30z"/>
<path d="M5065 7568 c-3 -24 -8 -56 -10 -73 l-5 -30 14 29 c9 20 15 25 19 15
4 -11 6 -10 6 3 1 9 -5 18 -11 21 -10 3 -10 9 0 26 14 24 16 51 3 51 -5 0 -12
-19 -16 -42z"/>
<path d="M5041 7434 c0 -11 3 -14 6 -6 3 7 2 16 -1 19 -3 4 -6 -2 -5 -13z"/>
<path d="M5023 7315 c0 -22 2 -30 4 -17 2 12 2 30 0 40 -3 9 -5 -1 -4 -23z"/>
<path d="M5002 7170 c0 -14 2 -19 5 -12 2 6 2 18 0 25 -3 6 -5 1 -5 -13z"/>
<path d="M4987 7124 c-4 -4 -7 -19 -6 -33 l0 -26 10 24 c10 26 8 47 -4 35z"/>
<path d="M4976 7033 c3 -12 1 -24 -5 -27 -6 -4 -11 -17 -10 -29 0 -14 2 -16 6
-7 2 8 9 25 16 38 8 16 8 25 -1 34 -8 8 -10 6 -6 -9z"/>
<path d="M4942 6870 c0 -14 2 -19 5 -12 2 6 2 18 0 25 -3 6 -5 1 -5 -13z"/>
<path d="M4932 6820 c0 -14 2 -19 5 -12 2 6 2 18 0 25 -3 6 -5 1 -5 -13z"/>
<path d="M4951 6824 c0 -11 3 -14 6 -6 3 7 2 16 -1 19 -3 4 -6 -2 -5 -13z"/>
<path d="M4922 6745 c0 -16 2 -22 5 -12 2 9 2 23 0 30 -3 6 -5 -1 -5 -18z"/>
<path d="M4903 6646 c-5 -30 -6 -53 -2 -50 9 5 24 93 17 99 -3 3 -9 -20 -15
-49z"/>
<path d="M4921 6594 c0 -11 3 -14 6 -6 3 7 2 16 -1 19 -3 4 -6 -2 -5 -13z"/>
<path d="M4942 6580 c0 -14 2 -19 5 -12 2 6 2 18 0 25 -3 6 -5 1 -5 -13z"/>
<path d="M4901 6554 c0 -11 3 -14 6 -6 3 7 2 16 -1 19 -3 4 -6 -2 -5 -13z"/>
<path d="M4882 6505 c0 -16 2 -22 5 -12 2 9 2 23 0 30 -3 6 -5 -1 -5 -18z"/>
<path d="M4865 6417 c-4 -31 -5 -62 -3 -69 3 -7 8 15 13 50 4 35 5 66 2 68 -3
3 -8 -19 -12 -49z"/>
<path d="M4847 6301 c-4 -19 -5 -36 -2 -39 10 -11 16 7 13 40 l-3 33 -8 -34z"/>
<path d="M4823 6155 c0 -27 2 -38 4 -22 2 15 2 37 0 50 -2 12 -4 0 -4 -28z"/>
<path d="M4861 6094 c0 -11 3 -14 6 -6 3 7 2 16 -1 19 -3 4 -6 -2 -5 -13z"/>
<path d="M3419 7085 c-1 -3 -2 -10 -3 -17 0 -6 -7 -13 -15 -16 -9 -3 -11 0 -6
8 6 9 4 11 -4 5 -9 -5 -10 -10 -2 -18 13 -13 33 3 37 28 2 13 -4 22 -7 10z"/>
<path d="M3396 6951 c-3 -5 1 -14 8 -20 10 -9 16 -9 21 -1 4 6 1 9 -7 8 -7 -2
-12 3 -10 10 2 14 -4 16 -12 3z"/>
<path d="M2650 6300 c0 -5 4 -10 9 -10 5 0 8 -8 7 -17 0 -10 7 -18 17 -19 12
-1 13 0 2 3 -20 6 -19 20 3 26 16 4 16 5 0 6 -10 0 -18 6 -18 11 0 6 -4 10
-10 10 -5 0 -10 -4 -10 -10z"/>
<path d="M2582 6272 c-7 -21 -7 -29 2 -29 6 0 11 13 12 29 1 35 -1 35 -14 0z"/>
<path d="M2727 6253 c-3 -5 9 -9 26 -10 24 -2 28 0 17 7 -18 12 -37 13 -43 3z"/>
<path d="M2705 6150 c-3 -5 -1 -10 4 -10 6 0 11 5 11 10 0 6 -2 10 -4 10 -3 0
-8 -4 -11 -10z"/>
<path d="M6219 7705 c-1 -5 -3 -28 -4 -49 -2 -39 -2 -39 11 -13 10 18 11 33 5
49 -6 13 -11 19 -12 13z"/>
<path d="M6300 7690 c-12 -7 -10 -9 7 -7 12 0 19 5 17 9 -6 10 -6 10 -24 -2z"/>
<path d="M6130 7360 c-12 -8 -10 -10 8 -10 13 0 20 4 17 10 -7 12 -6 12 -25 0z"/>
<path d="M6775 6961 c-3 -5 -2 -12 3 -15 5 -3 9 1 9 9 0 17 -3 19 -12 6z"/>
<path d="M7750 5936 c0 -2 7 -7 16 -10 8 -3 12 -2 9 4 -6 10 -25 14 -25 6z"/>
<path d="M4520 7640 c-21 -7 -21 -8 -5 -9 11 0 27 4 35 9 18 11 5 11 -30 0z"/>
<path d="M4456 7622 c-3 -6 -1 -14 5 -17 14 -9 20 -2 10 14 -6 8 -11 9 -15 3z"/>
<path d="M4430 7604 c1 -16 29 -60 29 -44 0 8 -6 24 -14 34 -8 11 -15 16 -15
10z"/>
<path d="M6498 7323 c7 -3 16 -2 19 1 4 3 -2 6 -13 5 -11 0 -14 -3 -6 -6z"/>
<path d="M3750 7296 c0 -2 7 -7 16 -10 8 -3 12 -2 9 4 -6 10 -25 14 -25 6z"/>
<path d="M3741 7194 c6 -7 16 -11 21 -8 11 7 3 17 -18 20 -12 2 -13 -1 -3 -12z"/>
<path d="M1950 7179 c0 -5 5 -7 10 -4 6 3 10 8 10 11 0 2 -4 4 -10 4 -5 0 -10
-5 -10 -11z"/>
<path d="M1985 7170 c-3 -5 -1 -10 4 -10 6 0 11 5 11 10 0 6 -2 10 -4 10 -3 0
-8 -4 -11 -10z"/>
<path d="M1970 7145 c0 -10 29 -24 34 -17 3 6 -3 12 -14 15 -11 3 -20 4 -20 2z"/>
<path d="M8221 7077 c-8 -11 -6 -20 9 -37 14 -16 17 -26 9 -31 -8 -5 -8 -8 0
-13 6 -4 11 -2 11 4 0 7 7 10 18 6 16 -6 16 -5 0 7 -10 8 -15 17 -11 20 3 4
-2 9 -11 13 -11 4 -15 13 -11 25 7 22 2 24 -14 6z"/>
<path d="M8208 7023 c7 -3 16 -2 19 1 4 3 -2 6 -13 5 -11 0 -14 -3 -6 -6z"/>
<path d="M8198 6993 c7 -3 16 -2 19 1 4 3 -2 6 -13 5 -11 0 -14 -3 -6 -6z"/>
<path d="M3105 6740 c-4 -6 -11 -7 -17 -4 -7 4 -8 2 -4 -5 6 -9 11 -9 22 0 14
11 18 19 10 19 -3 0 -8 -5 -11 -10z"/>
<path d="M7080 6726 c7 -7 13 -7 20 0 6 6 3 10 -10 10 -13 0 -16 -4 -10 -10z"/>
<path d="M2945 6499 c-19 -9 -19 -9 1 -6 12 3 29 0 38 -5 9 -5 16 -7 16 -4 0
13 -37 23 -55 15z"/>
<path d="M3910 5075 c0 -140 4 -255 8 -255 5 0 32 7 61 16 108 32 182 148 168
266 -8 62 -50 140 -95 174 -29 23 -107 54 -134 54 -4 0 -8 -115 -8 -255z"/>
<path d="M3127 5316 c-97 -26 -164 -112 -174 -224 -14 -148 89 -266 232 -266
104 -1 195 64 230 163 41 118 -7 247 -112 303 -61 32 -115 40 -176 24z"/>
<path d="M6942 4961 c-18 -65 -32 -126 -32 -135 0 -13 12 -16 70 -16 39 0 70
3 70 8 0 20 -65 262 -71 262 -3 0 -20 -53 -37 -119z"/>
<path d="M1280 4951 l25 -8 -25 -5 c-14 -2 -1 -4 27 -4 53 0 53 0 22 13 -17 7
-41 13 -53 12 -19 -1 -18 -2 4 -8z"/>
<path d="M5167 5009 c7 -7 15 -10 18 -7 3 3 -2 9 -12 12 -14 6 -15 5 -6 -5z"/>
<path d="M5390 4436 c0 -2 8 -10 18 -17 15 -13 16 -12 3 4 -13 16 -21 21 -21
13z"/>
<path d="M5283 4314 c4 -4 1 -14 -6 -23 -11 -14 -10 -15 8 -1 11 8 21 15 23
16 2 1 -5 5 -15 8 -9 4 -14 4 -10 0z"/>
<path d="M4800 4197 c0 -9 40 -35 44 -28 3 4 -6 13 -19 19 -14 7 -25 10 -25 9z"/>
<path d="M4782 4155 c0 -16 3 -39 8 -50 l9 -20 -1 20 c0 11 -4 34 -8 50 l-8
30 0 -30z"/>
<path d="M4791 4064 c0 -11 3 -14 6 -6 3 7 2 16 -1 19 -3 4 -6 -2 -5 -13z"/>
<path d="M4807 3959 c3 -24 7 -46 9 -48 9 -10 3 65 -5 78 -6 10 -8 -1 -4 -30z"/>
<path d="M4826 3882 c-2 -4 -1 -14 5 -22 7 -12 9 -10 9 8 0 23 -5 28 -14 14z"/>
<path d="M4861 3844 c0 -11 3 -14 6 -6 3 7 2 16 -1 19 -3 4 -6 -2 -5 -13z"/>
<path d="M4832 3815 c0 -16 2 -22 5 -12 2 9 2 23 0 30 -3 6 -5 -1 -5 -18z"/>
<path d="M4862 3655 c-1 -11 3 -38 7 -60 7 -34 9 -35 9 -10 0 35 -15 101 -16
70z"/>
<path d="M4887 3480 c3 -25 7 -47 9 -49 8 -9 2 55 -6 74 -6 13 -7 5 -3 -25z"/>
<path d="M4920 3451 c0 -6 4 -13 10 -16 6 -3 7 1 4 9 -7 18 -14 21 -14 7z"/>
<path d="M4912 3390 c0 -14 2 -19 5 -12 2 6 2 18 0 25 -3 6 -5 1 -5 -13z"/>
<path d="M4912 3340 c0 -14 2 -19 5 -12 2 6 2 18 0 25 -3 6 -5 1 -5 -13z"/>
<path d="M4921 3284 c0 -11 3 -14 6 -6 3 7 2 16 -1 19 -3 4 -6 -2 -5 -13z"/>
<path d="M4931 3225 c0 -5 6 -39 14 -75 11 -56 13 -60 13 -25 0 22 -6 56 -13
75 -7 19 -14 31 -14 25z"/>
<path d="M4982 2990 c0 -14 2 -19 5 -12 2 6 2 18 0 25 -3 6 -5 1 -5 -13z"/>
<path d="M4991 2894 c0 -11 3 -14 6 -6 3 7 2 16 -1 19 -3 4 -6 -2 -5 -13z"/>
<path d="M5001 2834 c0 -11 3 -14 6 -6 3 7 2 16 -1 19 -3 4 -6 -2 -5 -13z"/>
<path d="M5021 2724 c0 -11 3 -14 6 -6 3 7 2 16 -1 19 -3 4 -6 -2 -5 -13z"/>
<path d="M5031 2684 c0 -11 3 -14 6 -6 3 7 2 16 -1 19 -3 4 -6 -2 -5 -13z"/>
<path d="M5051 2594 c0 -11 3 -14 6 -6 3 7 2 16 -1 19 -3 4 -6 -2 -5 -13z"/>
<path d="M5062 2545 c0 -11 4 -33 8 -50 7 -27 8 -27 8 -5 0 14 -4 36 -8 50 -6
20 -8 21 -8 5z"/>
<path d="M5082 2440 c0 -14 2 -19 5 -12 2 6 2 18 0 25 -3 6 -5 1 -5 -13z"/>
<path d="M5092 2380 c0 -14 2 -19 5 -12 2 6 2 18 0 25 -3 6 -5 1 -5 -13z"/>
<path d="M5102 2340 c0 -8 4 -26 8 -40 6 -20 8 -21 8 -5 0 11 -3 29 -8 40 -5
12 -8 14 -8 5z"/>
<path d="M2457 3959 c7 -7 15 -10 18 -7 3 3 -2 9 -12 12 -14 6 -15 5 -6 -5z"/>
<path d="M4040 3899 c0 -5 5 -7 10 -4 6 3 10 8 10 11 0 2 -4 4 -10 4 -5 0 -10
-5 -10 -11z"/>
<path d="M4062 3884 c-7 -8 -8 -14 -3 -14 10 0 25 19 20 25 -2 1 -10 -3 -17
-11z"/>
<path d="M4004 3868 l-19 -23 23 19 c12 11 22 21 22 23 0 8 -8 2 -26 -19z"/>
<path d="M3817 3694 c-10 -13 -16 -30 -14 -37 3 -7 6 -4 6 7 1 10 6 16 14 13
7 -3 13 5 13 19 2 29 3 29 -19 -2z"/>
<path d="M2700 3811 c0 -5 5 -13 10 -16 6 -3 10 -2 10 4 0 5 -4 13 -10 16 -5
3 -10 2 -10 -4z"/>
<path d="M2700 3750 c11 -22 23 -40 25 -40 3 0 -4 18 -15 40 -11 22 -23 40
-25 40 -3 0 4 -18 15 -40z"/>
<path d="M6750 3725 c0 -5 5 -17 10 -25 5 -8 10 -10 10 -5 0 6 -5 17 -10 25
-5 8 -10 11 -10 5z"/>
<path d="M6667 3630 c-14 -17 -14 -19 3 -17 10 1 16 7 13 14 -7 18 7 16 21 -3
10 -14 12 -13 12 3 0 25 -29 26 -49 3z"/>
<path d="M6616 3569 c-16 -16 -17 -19 -4 -19 9 0 19 7 22 16 9 24 4 24 -18 3z"/>
<path d="M6235 3300 c-3 -5 -1 -10 4 -10 6 0 11 5 11 10 0 6 -2 10 -4 10 -3 0
-8 -4 -11 -10z"/>
<path d="M3465 3360 c-5 -9 -1 -19 15 -32 12 -10 25 -16 28 -13 3 3 -1 11 -10
18 -9 6 -18 19 -20 27 -4 12 -6 12 -13 0z"/>
<path d="M3409 3303 l-24 -28 28 24 c25 23 32 31 24 31 -2 0 -14 -12 -28 -27z"/>
<path d="M3424 3289 c-4 -7 -3 -9 4 -5 5 3 13 0 15 -6 4 -9 6 -10 6 -1 1 17
-16 25 -25 12z"/>
<path d="M4330 2370 c20 -13 43 -13 35 0 -3 6 -16 10 -28 10 -18 0 -19 -2 -7
-10z"/>
<path d="M4250 2191 c0 -11 4 -22 9 -25 4 -3 6 6 3 19 -5 30 -12 33 -12 6z"/>
<path d="M4260 2140 c0 -5 5 -10 11 -10 5 0 7 5 4 10 -3 6 -8 10 -11 10 -2 0
-4 -4 -4 -10z"/>
<path d="M4348 2123 c7 -3 16 -2 19 1 4 3 -2 6 -13 5 -11 0 -14 -3 -6 -6z"/>
<path d="M2076 3145 c-3 -8 -1 -15 4 -15 6 0 10 7 10 15 0 8 -2 15 -4 15 -2 0
-6 -7 -10 -15z"/>
<path d="M1995 3131 c-3 -5 -2 -12 3 -15 5 -3 9 1 9 9 0 17 -3 19 -12 6z"/>
<path d="M8195 3200 c-4 -6 -1 -9 7 -8 7 2 17 -11 22 -29 6 -18 14 -33 18 -33
4 0 4 8 1 17 -7 17 -5 17 22 -1 22 -13 18 -7 -14 23 -48 46 -47 45 -56 31z"/>
<path d="M8254 3191 c20 -22 26 -25 26 -13 0 4 -10 13 -22 21 -23 14 -23 14
-4 -8z"/>
<path d="M8204 3153 c1 -19 5 -28 10 -23 6 6 5 18 -1 32 -10 21 -10 21 -9 -9z"/>
<path d="M7312 2220 c-7 -11 -9 -20 -4 -20 4 0 13 9 20 20 7 11 9 20 4 20 -4
0 -13 -9 -20 -20z"/>
<path d="M7157 2105 c-15 -14 -24 -25 -19 -25 5 0 19 11 32 25 30 32 23 32
-13 0z"/>
<path d="M7033 1916 c1 -11 9 -21 17 -23 10 -3 11 -2 4 4 -6 4 -14 15 -17 23
-5 11 -6 9 -4 -4z"/>
<path d="M2945 2251 c18 -8 18 -9 2 -12 -16 -4 -16 -6 -4 -23 13 -18 14 -17
40 7 23 21 25 26 11 31 -8 3 -28 6 -42 5 -24 0 -25 -1 -7 -8z"/>
<path d="M2905 2210 c-3 -5 -1 -10 4 -10 6 0 11 5 11 10 0 6 -2 10 -4 10 -3 0
-8 -4 -11 -10z"/>
<path d="M3131 2106 c-9 -11 -9 -16 1 -22 7 -4 10 -4 6 1 -4 4 -3 14 3 22 6 7
9 13 6 13 -2 0 -10 -6 -16 -14z"/>
<path d="M3155 2101 c-3 -5 -2 -12 3 -15 5 -3 9 1 9 9 0 17 -3 19 -12 6z"/>
<path d="M3206 2038 c3 -4 11 -5 19 -1 21 7 19 12 -4 10 -11 0 -18 -5 -15 -9z"/>
<path d="M3216 2012 c-2 -4 4 -8 14 -8 10 0 16 4 14 8 -3 4 -9 8 -14 8 -5 0
-11 -4 -14 -8z"/>
</g>
</svg>
